<?xml version="1.0" encoding="utf-8"?>
<!-- Svg Vector Icons : http://www.onlinewebfonts.com/icon -->
<!DOCTYPE svg PUBLIC "-//W3C//DTD SVG 1.1//EN" "http://www.w3.org/Graphics/SVG/1.1/DTD/svg11.dtd">
<svg version="1.1" xmlns="http://www.w3.org/2000/svg" xmlns:xlink="http://www.w3.org/1999/xlink" x="0px" y="0px" viewBox="0 0 256 256" enable-background="new 0 0 256 256" xml:space="preserve">
<metadata> Svg Vector Icons : http://www.onlinewebfonts.com/icon </metadata>
<g><g><path fill="#FFF" d="M144.7,127.6l97.8-97.3c4.6-4.6,4.6-12.1,0-16.7c-4.6-4.6-12.1-4.6-16.7,0L128,110.9L31,13.6c-4.6-4.6-12.1-4.6-16.7,0c-4.6,4.6-4.6,12.1,0,16.7l97,97.3l-97.8,97.3c-4.6,4.6-4.6,12.1,0,16.7c2.3,2.3,5.3,3.5,8.4,3.5c3,0,6-1.1,8.3-3.4l97.8-97.3l97.9,98.2c2.3,2.3,5.3,3.5,8.4,3.5c3,0,6-1.2,8.3-3.4c4.6-4.6,4.6-12.1,0-16.7L144.7,127.6L144.7,127.6z"/></g></g>
</svg>